<?xml version="1.0" encoding="UTF-8" standalone="no"?>
<svg
   xmlns:dc="http://purl.org/dc/elements/1.1/"
   xmlns:cc="http://creativecommons.org/ns#"
   xmlns:rdf="http://www.w3.org/1999/02/22-rdf-syntax-ns#"
   xmlns:svg="http://www.w3.org/2000/svg"
   xmlns="http://www.w3.org/2000/svg"
   id="svg8"
   version="1.1"
   viewBox="0 0 411.43939 321.54559"
   height="321.54559mm"
   width="411.43939mm">
  <defs
     id="defs2">
    <filter
       style="color-interpolation-filters:sRGB"
       id="filter4533">
      <feBlend
         mode="normal"
         in2="SourceGraphic"
         id="feBlend4535" />
    </filter>
    <clipPath
       clipPathUnits="userSpaceOnUse"
       id="clipPath444">
      <path
         d="M 54,541 H 787.004 V 76.297 H 54 Z"
         id="path442" />
    </clipPath>
    <clipPath
       clipPathUnits="userSpaceOnUse"
       id="clipPath450">
      <path
         d="m 192.305,487.27 h 63.68 v -42.785 h -63.68 z"
         id="path448" />
    </clipPath>
    <clipPath
       clipPathUnits="userSpaceOnUse"
       id="clipPath432">
      <path
         d="m 148.504,487.27 h 55.719 L 188.648,444.484 H 132.93 Z"
         id="path430" />
    </clipPath>
    <clipPath
       clipPathUnits="userSpaceOnUse"
       id="clipPath414">
      <path
         d="m 87.852,487.27 h 45.769 l 15.574,-42.786 h -45.769 z"
         id="path412" />
    </clipPath>
  </defs>
  <metadata
     id="metadata5">
    <rdf:RDF>
      <cc:Work
         rdf:about="">
        <dc:format>image/svg+xml</dc:format>
        <dc:type
           rdf:resource="http://purl.org/dc/dcmitype/StillImage" />
        <dc:title></dc:title>
      </cc:Work>
    </rdf:RDF>
  </metadata>
  <g
     transform="translate(2359.0093,-1567.8058)"
     id="layer1">
    <text
       id="text1211"
       y="826.72821"
       x="-1372.1617"
       style="font-style:normal;font-weight:normal;font-size:10.58333302px;line-height:4.44499969px;font-family:sans-serif;letter-spacing:0px;word-spacing:0px;fill:#000000;fill-opacity:1;stroke:none;stroke-width:0.26458332"
       xml:space="preserve"><tspan
         style="stroke-width:0.26458332"
         y="831.69989"
         x="-1372.1617"
         id="tspan1209" /></text>
    <g
       id="g495"
       transform="translate(7.6054668,800.73948)">
      <g
         style="fill:#ffffff;stroke-width:0.8931306"
         transform="matrix(1.1195837,0,0,1.1197304,-1021.2762,64.973602)"
         id="g406">
        <g
           aria-label="P"
           transform="matrix(0.96591624,-0.25882162,0.25881648,0.96593541,-1.8898809,2.6458333)"
           style="font-style:normal;font-weight:normal;font-size:41.31916428px;line-height:17.35404587px;font-family:sans-serif;letter-spacing:0px;word-spacing:0px;fill:#ffffff;fill-opacity:1;stroke:none;stroke-width:0.23630746"
           id="g396">
          <path
             d="m -1259.3288,345.67199 c -0.2346,-2.45643 -1.6105,-4.69082 -3.9671,-6.40563 -2.3254,-1.69211 -5.7066,-2.9426 -10.129,-2.67789 -4.7092,0.28188 -9.3428,0.67359 -14.0803,0.91055 -0.032,0.97598 -0.049,1.95467 -0.057,2.92945 1.0179,0.78132 2.0425,1.55148 3.0657,2.30442 0.012,2.35003 0.6197,27.76413 0.7307,29.98629 -1.0472,1.01658 -2.0954,2.04142 -3.1578,3.08702 0.048,0.95215 0.1077,1.90396 0.1835,2.84877 4.1544,-0.84969 7.5809,-1.36595 11.6772,-2.00281 -0.1287,-0.95294 -0.2388,-1.90593 -0.3343,-2.85389 -1.1757,-0.63658 -2.3536,-1.28167 -3.494,-1.91358 -0.2648,-3.79155 -0.4057,-8.36609 -0.5279,-12.13533 2.0931,-0.2982 4.5624,-0.64631 6.7186,-0.98034 4.755,-0.73662 8.2092,-2.83723 10.4535,-5.35663 2.2425,-2.51744 3.1522,-5.28852 2.918,-7.7404 z m -20.5842,-3.34793 c 1.4305,-0.11562 5.3609,-0.42767 6.7913,-0.5433 5.9542,-0.47671 8.5395,2.53629 8.7098,4.87179 0.1702,2.33424 -1.9743,6.11354 -8.2216,6.95963 -2.2079,0.29903 -4.8229,0.62191 -6.9574,0.88646 -0.1221,-3.66116 -0.2961,-8.457 -0.3221,-12.17458 z"
             style="font-style:normal;font-variant:normal;font-weight:bold;font-stretch:normal;font-family:nanook;-inkscape-font-specification:'nanook Bold';fill:#ffffff;stroke-width:0.23630746"
             id="path394" />
        </g>
        <g
           aria-label="P"
           transform="rotate(2.3857388)"
           style="font-style:normal;font-weight:normal;font-size:38.44350815px;line-height:16.14627075px;font-family:sans-serif;letter-spacing:0px;word-spacing:0px;fill:#ffffff;fill-opacity:1;stroke:none;stroke-width:0.23630746"
           id="g400">
          <path
             d="m -973.37552,906.46536 c 0,-5.0361 -3.69057,-9.99531 -12.07126,-9.99531 h -13.22457 v 2.49882 l 2.88327,2.15284 v 26.0647 l -2.88327,2.15284 v 2.49882 h 10.0722 v -2.49882 l -2.88326,-2.15284 v -10.72574 h 6.03563 c 8.38069,0 12.07126,-4.95921 12.07126,-9.99531 z m -18.10689,-5.38209 h 6.30474 c 5.49742,0 7.49648,3.03703 7.49648,5.38209 0,2.34505 -1.99906,5.34365 -7.49648,5.34365 h -6.30474 z"
             style="font-style:normal;font-variant:normal;font-weight:bold;font-stretch:normal;font-family:nanook;-inkscape-font-specification:'nanook Bold';fill:#ffffff;stroke-width:0.23630746"
             id="path398" />
        </g>
        <g
           aria-label="P"
           transform="matrix(0.67569831,0.49379028,-0.49379028,0.67569831,-156.89194,119.80448)"
           style="font-style:normal;font-weight:normal;font-size:38.44350815px;line-height:16.14627075px;font-family:sans-serif;letter-spacing:0px;word-spacing:0px;fill:#ffffff;fill-opacity:1;stroke:none;stroke-width:0.28236136"
           id="g404">
          <path
             d="m -315.94497,1178.8846 c 0.024,-2.7457 -0.96778,-5.3302 -3.0981,-7.1677 -2.11629,-1.8254 -5.33453,-2.8855 -9.51998,-2.3753 -4.41564,0.5381 -8.75025,1.2056 -13.17321,1.6637 -0.0118,0.8825 -0.0345,1.7684 -0.0653,2.6538 0.95236,0.6664 1.92486,1.3373 2.8844,1.9954 -0.27605,9.3123 -0.97496,18.637 -1.18478,27.803 -1.08872,0.8486 -2.19263,1.6954 -3.3078,2.5338 -0.0165,0.882 -0.0309,1.7514 -0.0445,2.6312 3.84177,-0.2967 7.48357,-0.6572 11.04243,-0.9606 0.0231,-0.8735 0.0445,-1.7598 0.0649,-2.6352 -1.00675,-0.6707 -2.0093,-1.3289 -3.03371,-1.994 0.0926,-4.081 0.18081,-7.2646 0.331,-11.3916 3.48728,-0.3426 2.86602,-0.2837 6.3533,-0.6263 8.64877,-0.8409 12.70292,-6.5923 12.75138,-12.1302 z m -18.57746,-3.7828 c 2.32315,-0.2803 4.0637,-0.4933 6.38258,-0.7568 5.59155,-0.6355 7.7064,2.5225 7.68654,5.0506 -0.0202,2.571 -2.15692,6.0106 -7.8308,6.586 -1.5553,0.1577 -5.01971,0.52 -6.57501,0.6777 0.14481,-3.7033 0.30766,-7.8292 0.33669,-11.5575 z"
             style="font-style:normal;font-variant:normal;font-weight:bold;font-stretch:normal;font-family:nanook;-inkscape-font-specification:'nanook Bold';fill:#ffffff;stroke-width:0.28236136"
             id="path402" />
        </g>
      </g>
      <g
         transform="translate(-1143,157.23809)"
         style="stroke:#ffffff;stroke-width:1.05833328;stroke-miterlimit:4;stroke-dasharray:none"
         id="g493">
        <path
           style="fill:none;stroke:#ffffff;stroke-width:1.58749986;stroke-linecap:round;stroke-linejoin:round;stroke-miterlimit:4;stroke-dasharray:none;stroke-opacity:1"
           d="m -852.74788,661.5099 -68.55453,-22.00802 -16.92703,41.47667 -11.84886,4.23231 66.86174,27.93328 11.84893,-6.7717 -8.46351,-5.07878 z"
           id="path408" />
        <path
           style="fill:none;stroke:#ffffff;stroke-width:1.58749986;stroke-linecap:round;stroke-linejoin:round;stroke-miterlimit:4;stroke-dasharray:none;stroke-opacity:1"
           d="m -874.13191,692.92182 61.16258,26.14755 -51.6275,32.1656 -122.72104,-58.40594 38.08588,-22.64288 12.91674,3.83417"
           id="path410" />
        <path
           style="fill:none;stroke:#ffffff;stroke-width:1.58749986;stroke-linecap:round;stroke-linejoin:round;stroke-miterlimit:4;stroke-dasharray:none;stroke-opacity:1"
           d="m -962.77358,725.84109 55.85917,26.24034 c 0,0 -17.22348,9.17289 -26.02532,17.98733 -8.80183,8.81444 -17.93669,29.05467 -33.21925,37.87921 l -52.47392,-35.55144 c 14.462,-7.54958 24.02173,-23.42058 33.21936,-30.89588 9.19762,-7.4753 22.63996,-15.65956 22.63996,-15.65956 z"
           id="path413" />
        <path
           style="fill:none;stroke:#ffffff;stroke-width:1.58749986;stroke-linecap:round;stroke-linejoin:round;stroke-miterlimit:4;stroke-dasharray:none;stroke-opacity:1"
           d="m -987.31787,692.82903 -15.74213,38.17547 14.59961,8.25302"
           id="path415" />
        <path
           style="fill:none;stroke:#ffffff;stroke-width:1.58749986;stroke-linecap:round;stroke-linejoin:round;stroke-miterlimit:4;stroke-dasharray:none;stroke-opacity:1"
           d="m -930.35835,768.58746 61.74495,30.2087 27.77479,-16.04341 m 10.15468,-7.83725 17.15866,-12.92443 0.55594,-42.9217"
           id="path417" />
        <path
           style="fill:none;stroke:#ffffff;stroke-width:1.58749986;stroke-linecap:round;stroke-linejoin:round;stroke-miterlimit:4;stroke-dasharray:none;stroke-opacity:1"
           d="m -1205.6439,694.72086 -14.7034,-52.2563 104.6099,-31.84262 7.8816,48.25652 m 1.8413,9.25026 3.0123,17.09593 54.5791,30.02304 -98.1774,52.42949 -50.0959,-41.51203 -5.1763,-18.50837"
           id="path419" />
        <path
           style="fill:none;stroke:#ffffff;stroke-width:1.58749986;stroke-linecap:round;stroke-linejoin:round;stroke-miterlimit:4;stroke-dasharray:none;stroke-opacity:1"
           d="m -1196.6964,726.16515 93.6942,-40.9405"
           id="path421" />
        <path
           style="fill:none;stroke:#ffffff;stroke-width:1.58749986;stroke-linecap:round;stroke-linejoin:round;stroke-miterlimit:4;stroke-dasharray:none;stroke-opacity:1"
           d="m -1139.3884,734.35326 33.6573,-16.37622 12.735,9.09789 -34.5668,18.19579 z"
           id="path423" />
        <path
           style="fill:none;stroke:#ffffff;stroke-width:1.58749986;stroke-linecap:round;stroke-linejoin:round;stroke-miterlimit:4;stroke-dasharray:none;stroke-opacity:1"
           d="m -984.06306,895.71947 -3.74003,32.56382 -75.49481,-2.79333 -4.2318,5.07878 -20.0131,-4.13243 -1.0887,-5.51905 -48.9761,-30.72481 0.5486,-38.95539 m 0.1409,-10.37646 1.0032,-41.23967 54.5051,34.70499 -0.4232,6.77169 16.3832,2.96264 4.6549,-5.50204 84.84064,-3.38583 -6.3534,48.77057"
           id="path425" />
        <path
           style="fill:none;stroke:#ffffff;stroke-width:1.58749986;stroke-linecap:round;stroke-linejoin:round;stroke-miterlimit:4;stroke-dasharray:none;stroke-opacity:1"
           d="m -1081.833,841.09761 c 0,1.6929 -4.6765,72.59484 -4.6765,72.59484"
           id="path427" />
        <path
           style="fill:none;stroke:#ffffff;stroke-width:1.58749986;stroke-linecap:round;stroke-linejoin:round;stroke-miterlimit:4;stroke-dasharray:none;stroke-opacity:1"
           d="m -1067.5297,930.56874 2.0799,-86.50849"
           id="path429" />
        <path
           style="fill:none;stroke:#ffffff;stroke-width:1.58749986;stroke-linecap:round;stroke-linejoin:round;stroke-miterlimit:4;stroke-dasharray:none;stroke-opacity:1"
           d="m -1126.1818,803.43002 0.4231,-9.73432 c 0,0 46.7678,37.7801 48.5353,40.34297 1.7675,2.56286 1.2302,5.02743 1.2302,5.02743"
           id="path431" />
        <path
           style="fill:none;stroke:#ffffff;stroke-width:1.58749986;stroke-linecap:round;stroke-linejoin:round;stroke-miterlimit:4;stroke-dasharray:none;stroke-opacity:1"
           d="m -1096.0093,799.83255 -0.2116,-14.17825 c 0,0 21.2576,41.63173 22.5015,45.16722 1.2438,3.5355 0.6885,8.61491 0.6885,8.61491"
           id="path433" />
        <path
           id="path435"
           d="m -1113.3173,799.19771 0.4232,-9.73432 c 0,0 35.543,39.3938 37.2357,42.77967 1.6927,3.38586 1.231,7.03466 1.231,7.03466"
           style="fill:none;stroke:#ffffff;stroke-width:1.58749986;stroke-linecap:round;stroke-linejoin:round;stroke-miterlimit:4;stroke-dasharray:none;stroke-opacity:1" />
        <path
           id="path437"
           d="m -988.44294,831.18391 -0.42309,-9.73432 c 0,0 -76.09257,10.62476 -77.86017,13.18762 -1.7675,2.56286 -1.7697,5.45067 -1.7697,5.45067"
           style="fill:none;stroke:#ffffff;stroke-width:1.58749986;stroke-linecap:round;stroke-linejoin:round;stroke-miterlimit:4;stroke-dasharray:none;stroke-opacity:1" />
        <path
           id="path439"
           d="m -1017.9807,810.69951 -0.4232,-9.73432 c 0,0 -50.5823,26.91938 -51.8261,30.45487 -1.2439,3.5355 -1.281,8.24458 -1.281,8.24458"
           style="fill:none;stroke:#ffffff;stroke-width:1.58749986;stroke-linecap:round;stroke-linejoin:round;stroke-miterlimit:4;stroke-dasharray:none;stroke-opacity:1" />
        <path
           style="fill:none;stroke:#ffffff;stroke-width:1.58749986;stroke-linecap:round;stroke-linejoin:round;stroke-miterlimit:4;stroke-dasharray:none;stroke-opacity:1"
           d="m -1001.3077,819.24879 -0.423,-9.73432 c 0,0 -64.8676,19.94126 -66.5604,23.32713 -1.6927,3.38586 -1.707,7.03466 -1.707,7.03466"
           id="path441" />
        <path
           id="path443"
           d="m -1203.9964,693.32115 c 0,0 -16.203,24.63455 -18.5968,31.2185 -1.9761,5.43515 10.9296,27.0616 15.2678,34.57652 4.3108,7.46741 2.4146,12.75116 2.4146,12.75116 -1.6387,3.1251 -1.9513,6.76271 0.1201,8.60032 0,0 2.7536,2.59027 3.4038,2.80704"
           style="fill:none;stroke:#ffffff;stroke-width:1.58749986;stroke-linecap:round;stroke-linejoin:round;stroke-miterlimit:4;stroke-dasharray:none;stroke-opacity:1" />
        <path
           id="path445"
           d="m -1107.8439,658.97525 c 0,0 15.265,-5.86811 20.5748,-5.26958 5.3098,0.59854 27.047,1.47655 27.047,1.47655 l 3.2482,0.0546 c 3.6232,-0.0802 12.8381,0.0409 20.069,-1.52132 1.8364,-0.39675 14.7089,1.45987 12.7511,3.83038 -3.4667,4.19758 -7.5992,-0.76812 -12.7185,0.80095 -3.8251,1.17241 -7.167,3.93519 -9.2565,3.72932"
           style="fill:none;stroke:#ffffff;stroke-width:1.58749986;stroke-linecap:round;stroke-linejoin:round;stroke-miterlimit:4;stroke-dasharray:none;stroke-opacity:1" />
        <path
           id="path447"
           d="m -984.11024,895.53421 c 0,0 44.55851,-1.18904 51.14166,-3.58319 6.58304,-2.39415 38.30148,-19.45253 38.30148,-19.45253"
           style="fill:none;stroke:#ffffff;stroke-width:1.58749986;stroke-linecap:round;stroke-linejoin:round;stroke-miterlimit:4;stroke-dasharray:none;stroke-opacity:1" />
        <path
           id="path449"
           d="m -1136.8838,851.46224 c 0,0 -27.0895,-16.22208 -31.8772,-22.20749 -4.7878,-5.98538 -19.438,-30.07821 -19.438,-30.07821"
           style="fill:none;stroke:#ffffff;stroke-width:1.58749986;stroke-linecap:round;stroke-linejoin:round;stroke-miterlimit:4;stroke-dasharray:none;stroke-opacity:1" />
        <path
           id="path451"
           d="m -1027.1102,659.71271 c 3.1571,3.01915 4.6694,8.37922 13.0559,10.66404 l 2.0479,0.5848 c 0,0 12.20839,3.55152 18.02544,5.69492 5.81702,2.1434 20.79648,7.78102 20.79648,7.78102"
           style="fill:none;stroke:#ffffff;stroke-width:1.58749986;stroke-linecap:round;stroke-linejoin:round;stroke-miterlimit:4;stroke-dasharray:none;stroke-opacity:1" />
        <path
           id="path453"
           d="m -1031.469,674.24522 c 2.2546,1.49351 13.2418,2.71323 16.5445,3.74408 l 1.966,0.63272 c 0,0 12.2084,3.55154 18.02539,5.69493 2.80173,1.03236 8.7869,2.02883 11.8727,4.61431"
           style="fill:none;stroke:#ffffff;stroke-width:1.58749986;stroke-linecap:round;stroke-linejoin:round;stroke-miterlimit:4;stroke-dasharray:none;stroke-opacity:1" />
        <path
           id="path455"
           d="m -1193.851,786.53581 c -0.9808,3.45222 1.72,8.70803 5.652,12.64073"
           style="fill:none;stroke:#ffffff;stroke-width:1.58749986;stroke-linecap:round;stroke-linejoin:round;stroke-miterlimit:4;stroke-dasharray:none;stroke-opacity:1" />
        <path
           id="path457"
           d="m -1183.2555,776.0148 c 0.062,1.53752 3.8264,4.50186 4.5841,6.01762 0.2837,0.56761 -0.2185,1.76251 0.1201,2.26951 0.2903,0.43561 0.3686,1.29312 0.1188,1.79176 -1.3308,2.66199 -4.6535,-1.77884 -5.0401,-2.93847"
           style="fill:none;stroke:#ffffff;stroke-width:1.58749986;stroke-linecap:round;stroke-linejoin:round;stroke-miterlimit:4;stroke-dasharray:none;stroke-opacity:1" />
        <path
           id="path459"
           d="m -1196.4909,779.33288 c 0,1.18514 -0.94,1.74586 -1.3137,2.86676 -0.8102,2.6588 -0.7067,7.83056 1.1943,9.07813 1.9011,1.24758 2.3887,-1.3013 2.3887,-1.31394 0,-4.78521 1.5001,-6.48195 4.2996,-10.27262 l 0.2389,-0.2389 c 0.6939,-1.90894 1.2923,-3.87745 1.9109,-5.73353 0.6416,-1.92487 -0.65,-5.14999 0.2389,-6.92802 1.1,-2.2003 3.5213,0.77059 3.8219,1.67227 0.3506,1.05184 0.7035,13.55637 0.2099,14.54378 -0.6648,1.32964 5.0972,9.91905 0.5389,13.801"
           style="fill:none;stroke:#ffffff;stroke-width:1.58749986;stroke-linecap:round;stroke-linejoin:round;stroke-miterlimit:4;stroke-dasharray:none;stroke-opacity:1" />
        <path
           id="path461"
           d="m -1201.7458,776.58555 c -0.2454,1.28783 0.065,2.64931 0.3584,3.82238 0.6561,2.62524 -0.9184,6.68914 2.9856,6.68914"
           style="fill:none;stroke:#ffffff;stroke-width:1.58749986;stroke-linecap:round;stroke-linejoin:round;stroke-miterlimit:4;stroke-dasharray:none;stroke-opacity:1" />
        <path
           id="path463"
           d="m -870.4961,863.53775 c -2.08414,1.04221 -4.63874,2.67342 -10.06203,3.8882 -4.00366,0.8968 -8.33332,2.39977 -14.10897,5.07254"
           style="fill:none;stroke:#ffffff;stroke-width:1.58749986;stroke-linecap:round;stroke-linejoin:round;stroke-miterlimit:4;stroke-dasharray:none;stroke-opacity:1" />
        <path
           style="fill:none;stroke:#ffffff;stroke-width:1.58749986;stroke-linecap:round;stroke-linejoin:round;stroke-miterlimit:4;stroke-dasharray:none;stroke-opacity:1"
           d="m -1200.5588,705.19388 c 0,0 -10.6482,16.79968 -12.1741,20.99637 0.081,5.80186 11.7339,30.72299 16.6964,33.58841 3.9692,2.64654 5.2344,2.48672 8.3047,6.72396"
           id="path465" />
        <path
           style="fill:none;stroke:#ffffff;stroke-width:1.58749986;stroke-linecap:round;stroke-linejoin:round;stroke-miterlimit:4;stroke-dasharray:none;stroke-opacity:1"
           d="m -1106.0701,667.84048 c 0,0 17.6259,-6.99653 22.9358,-6.398 3.8333,0.43211 13.0159,0.9615 17.7626,1.72565 6.6316,1.06759 6.1754,2.77742 6.1754,2.77742"
           id="path467" />
        <path
           style="fill:none;stroke:#ffffff;stroke-width:1.58749986;stroke-linecap:round;stroke-linejoin:round;stroke-miterlimit:4;stroke-dasharray:none;stroke-opacity:1"
           d="m -847.63605,772.01524 c 5.87102,8.18545 13.33461,19.37623 13.33461,22.48091 0.45837,5.50123 -33.11311,37.46891 -33.11311,37.46891 -4.41754,4.59983 -6.12675,6.30958 -8.64218,9.72795"
           id="path469" />
        <path
           style="fill:none;stroke:#ffffff;stroke-width:1.58749986;stroke-linecap:round;stroke-linejoin:round;stroke-miterlimit:4;stroke-dasharray:none;stroke-opacity:1"
           d="m -982.50073,884.44993 c 0,0 39.35823,-0.87847 45.94139,-3.27262 6.58304,-2.39415 41.89224,-19.7518 41.89224,-19.7518 l 1.28875,-0.71206 c 2.03845,-1.17706 5.96879,-3.61274 6.32733,-6.6993 0.35855,-3.08656 2.90604,-6.97363 4.35344,-7.90591 3.44502,-2.21894 6.89607,-6.41433 8.08224,-3.3284 1.18162,2.36348 -8.09231,7.20481 -3.56569,10.22296 1.79931,0.73492 4.63545,1.36029 8.28407,0.2774"
           id="path471" />
        <path
           style="fill:none;stroke:#ffffff;stroke-width:1.58749986;stroke-linecap:round;stroke-linejoin:round;stroke-miterlimit:4;stroke-dasharray:none;stroke-opacity:1"
           d="m -1136.6803,841.31307 c 0,0 -22.2735,-13.9949 -26.6178,-19.40822 -4.3445,-5.41329 -17.795,-27.15355 -17.795,-27.15355"
           id="path473" />
        <path
           style="fill:none;stroke:#ffffff;stroke-width:1.58749986;stroke-linecap:round;stroke-linejoin:round;stroke-miterlimit:4;stroke-dasharray:none;stroke-opacity:1"
           d="m -1035.9002,667.06056 c 2.1855,0.64366 8.7399,4.89672 9.9769,4.27819 0.4727,-0.23645 1.1652,-0.31261 1.1652,-0.74713 0,-3.71642 -4.4624,-5.1057 -7.2191,-6.02467 l -0.9569,-0.3415 c -4.634,-1.0667 -14.931,4.76475 -12.6893,-1.96096"
           id="path475" />
        <path
           style="fill:none;stroke:#ffffff;stroke-width:1.58749986;stroke-linecap:round;stroke-linejoin:round;stroke-miterlimit:4;stroke-dasharray:none;stroke-opacity:1"
           d="m -1025.9711,672.12768 c 1.5543,3.00146 -2.1013,3.76062 -3.765,2.92867 -2.5988,-1.29956 -7.7178,-5.62901 -10.4979,-6.55581"
           id="path477" />
        <path
           style="fill:none;stroke:#ffffff;stroke-width:1.58749986;stroke-linecap:round;stroke-linejoin:round;stroke-miterlimit:4;stroke-dasharray:none;stroke-opacity:1"
           d="m -1035.9822,675.73204 c 0.5669,0.49041 0.581,2.79701 -1.5887,3.22415 -1.6133,0.44753 -2.8367,-3.00075 -8.5679,-4.73111"
           id="path479" />
        <path
           style="fill:none;stroke:#ffffff;stroke-width:1.58749986;stroke-linecap:round;stroke-linejoin:round;stroke-miterlimit:4;stroke-dasharray:none;stroke-opacity:1"
           d="m -1048.0171,670.16566 c 3.1588,-1.93707 0.464,-5.04652 -1.3979,-4.43619 -1.6986,0.5567 -4.9928,2.5916 -6.6523,3.1355 2.1074,-1.23693 7.2181,-4.53213 7.9858,-6.162 0.2991,-0.63511 -0.6835,-1.82576 -1.1146,-1.98685 -1.5374,-0.5744 -9.6953,2.64616 -10.0315,6.42692 0,2.60531 2.4742,1.22146 3.0279,2.03781 0.6083,0.89725 0.5371,1.98668 1.3375,2.61628 1.3755,1.07659 2.3014,0.21324 3.1557,0.49328 0.4663,0.15282 0.7632,1.39011 1.4009,1.70371 0.9353,0.45971 3.2406,0.34499 4.1293,-0.0361"
           id="path481" />
        <path
           style="fill:none;stroke:#ffffff;stroke-width:1.58749986;stroke-linecap:round;stroke-linejoin:round;stroke-miterlimit:4;stroke-dasharray:none;stroke-opacity:1"
           d="m -1045.4815,673.68718 c 2.6242,-1.55768 2.057,-4.18051 0.3571,-4.34192 -2.212,-0.21004 -4.5005,2.32347 -6.4236,2.95376"
           id="path483" />
        <path
           style="fill:none;stroke:#ffffff;stroke-width:1.58749986;stroke-linecap:round;stroke-linejoin:round;stroke-miterlimit:4;stroke-dasharray:none;stroke-opacity:1"
           d="m -1030.3791,674.92377 c 1.7523,3.22146 -1.4477,3.47517 -3.144,2.45727 -1.0928,-0.65582 -3.3858,-2.67785 -4.3778,-3.47156 -1.9954,-1.59655 -3.6524,-2.89105 -5.8546,-3.99233"
           id="path485" />
        <path
           style="opacity:1;fill:none;fill-opacity:1;stroke:#ffffff;stroke-width:1.58749986;stroke-linecap:round;stroke-linejoin:round;stroke-miterlimit:4;stroke-dasharray:none;stroke-dashoffset:0;stroke-opacity:1;paint-order:markers stroke fill"
           d="m -873.74586,853.34974 c 0.72704,-0.82541 2.49154,-1.11744 3.25366,-0.66944 2.33097,1.1656 0.72396,4.48052 0.51975,10.02383 -2.19115,4.21253 2.82278,3.45258 4.77812,0.0248 1.31346,-0.36818 2.4325,-2.26411 3.35513,-3.51417 2.62097,-3.5511 2.82085,-7.40485 3.65101,-9.09205 2.0711,-4.93529 -1.06987,-8.16846 -2.43372,-10.56828 m 1.429,2.02311 c 8.79123,-21.15329 37.61088,-27.67142 39.36413,-45.81169 -0.59847,-7.18245 -20.34766,-32.91965 -20.34766,-32.91965"
           id="path487" />
        <path
           style="opacity:1;fill:none;fill-opacity:1;stroke:#ffffff;stroke-width:1.58749986;stroke-linecap:round;stroke-linejoin:round;stroke-miterlimit:4;stroke-dasharray:none;stroke-dashoffset:0;stroke-opacity:1;paint-order:markers stroke fill"
           d="m -864.4652,852.84374 c -0.9986,2.75481 0.10592,9.49454 -1.13172,10.51341"
           id="path489" />
        <path
           style="opacity:1;fill:none;fill-opacity:1;stroke:#ffffff;stroke-width:1.58749986;stroke-linecap:round;stroke-linejoin:round;stroke-miterlimit:4;stroke-dasharray:none;stroke-dashoffset:0;stroke-opacity:1;paint-order:markers stroke fill"
           d="m -861.35773,848.22076 c -0.37456,1.45167 1.50003,7.55076 0,10.38149"
           id="path491" />
      </g>
    </g>
  </g>
</svg>
